<?xml version="1.0" standalone="no"?>
<!DOCTYPE svg PUBLIC "-//W3C//DTD SVG 20010904//EN"
 "http://www.w3.org/TR/2001/REC-SVG-20010904/DTD/svg10.dtd">
<svg version="1.0" xmlns="http://www.w3.org/2000/svg"
 width="800.000000pt" height="800.000000pt" viewBox="0 0 800.000000 800.000000"
 preserveAspectRatio="xMidYMid meet">
<metadata>
Created by potrace 1.15, written by Peter Selinger 2001-2017
</metadata>
<g transform="translate(0.000000,800.000000) scale(0.100000,-0.100000)"
fill="#02496d" stroke="none">
<path d="M3939 6440 c-31 -5 -85 -20 -120 -33 -35 -14 -72 -28 -82 -31 -9 -3
-24 -22 -33 -43 -9 -21 -20 -46 -25 -55 -5 -10 -9 -29 -9 -42 0 -14 -4 -27 -9
-30 -5 -3 -11 -20 -14 -38 -3 -18 -10 -51 -17 -73 -6 -22 -15 -56 -20 -75 -5
-19 -13 -52 -19 -72 -6 -21 -16 -55 -22 -75 -6 -21 -14 -54 -19 -73 -5 -19
-13 -51 -19 -70 -15 -52 -51 -190 -61 -230 -9 -36 -24 -92 -40 -145 -14 -48
-28 -98 -35 -125 -15 -59 -29 -106 -36 -115 -10 -14 -40 -116 -92 -315 -14
-52 -33 -122 -42 -155 -9 -33 -21 -76 -25 -95 -8 -34 -22 -83 -40 -145 -5 -16
-18 -66 -30 -110 -12 -44 -26 -96 -32 -115 -5 -19 -12 -50 -15 -67 -11 -72
-27 -30 -63 162 -28 157 -40 214 -55 265 -8 25 -19 70 -24 100 -6 30 -18 91
-27 135 -9 44 -20 100 -24 125 -5 25 -15 79 -24 120 -9 41 -16 83 -16 93 0 10
-9 39 -20 65 -45 102 -183 160 -358 149 -113 -7 -152 -19 -215 -70 -44 -37
-158 -195 -184 -257 -4 -8 -21 -37 -38 -65 -18 -27 -48 -79 -67 -115 -81 -147
-232 -408 -287 -493 -60 -94 -154 -255 -191 -327 -11 -22 -24 -40 -29 -40 -4
0 -43 69 -86 153 -43 83 -86 164 -97 179 -10 15 -44 76 -74 135 -82 160 -102
187 -159 221 -73 44 -128 55 -257 51 -99 -4 -120 -7 -170 -32 -64 -31 -111
-81 -164 -172 -19 -33 -49 -80 -67 -105 -18 -25 -72 -111 -121 -192 l-87 -148
-90 0 -89 0 0 -199 0 -200 263 6 262 5 71 33 c72 33 135 89 162 145 8 16 19
27 25 24 23 -9 77 -104 206 -360 148 -295 157 -306 290 -355 102 -39 189 -39
306 -2 47 15 100 39 118 54 28 23 105 136 153 224 44 80 237 410 301 515 22
36 71 120 108 188 37 67 71 122 75 122 4 0 10 -21 14 -47 3 -27 11 -70 16 -98
6 -27 14 -75 20 -105 5 -30 14 -75 20 -100 6 -25 15 -70 20 -100 6 -30 15 -77
20 -105 5 -27 14 -75 20 -105 6 -30 14 -75 20 -100 5 -25 14 -69 19 -98 6 -30
14 -59 19 -65 6 -7 12 -30 15 -52 9 -61 36 -209 57 -310 6 -27 15 -75 21 -105
6 -30 15 -75 19 -100 5 -25 13 -70 19 -100 18 -109 40 -141 135 -197 70 -41
159 -54 274 -42 60 6 85 15 134 46 70 43 116 95 128 144 9 35 25 92 40 144 5
17 17 55 28 85 11 30 24 73 30 95 21 74 52 190 61 225 17 64 33 125 41 150 14
44 30 103 53 195 l23 90 335 3 334 2 13 -57 c7 -32 18 -80 23 -108 6 -27 20
-88 31 -135 20 -89 24 -105 58 -260 11 -52 25 -113 30 -135 5 -22 14 -65 20
-95 28 -134 37 -172 59 -256 6 -23 11 -52 11 -64 0 -13 4 -37 9 -54 15 -48 28
-105 41 -171 17 -88 44 -199 61 -250 6 -16 17 -59 26 -95 42 -184 54 -220 85
-267 33 -50 41 -54 131 -78 100 -26 271 -18 347 17 69 32 126 90 139 143 5 22
15 58 21 80 6 22 15 58 20 80 5 22 14 58 20 80 6 22 15 56 20 75 5 19 14 53
20 75 6 22 14 54 17 70 3 17 9 35 13 40 13 16 40 98 40 122 0 12 4 32 9 45 5
13 14 43 21 68 7 25 16 59 21 75 5 17 16 59 24 95 9 36 27 108 41 160 14 52
41 156 60 230 20 74 44 167 54 205 10 39 42 160 70 270 68 265 79 305 105 374
14 40 92 333 135 511 54 220 69 265 84 249 2 -2 34 -69 71 -149 36 -80 72
-152 80 -160 8 -9 41 -72 73 -140 33 -69 82 -174 111 -233 28 -60 51 -110 51
-112 0 -4 62 -135 146 -310 23 -49 54 -110 68 -135 14 -25 53 -101 86 -170 71
-147 96 -174 210 -218 107 -42 190 -43 305 -6 71 24 87 34 140 89 89 92 202
219 280 315 38 47 104 127 147 178 l78 93 0 213 0 212 -147 -4 c-93 -2 -165
-9 -195 -18 -58 -19 -142 -94 -263 -238 -49 -58 -93 -106 -97 -106 -8 0 -194
377 -316 640 -87 189 -159 336 -238 490 -41 79 -81 163 -250 529 -114 245
-151 300 -236 347 -52 29 -55 29 -208 29 -153 0 -156 0 -209 -30 -60 -33 -116
-93 -124 -133 -7 -35 -23 -97 -37 -147 -11 -39 -20 -76 -39 -152 -18 -73 -42
-168 -53 -208 -6 -22 -14 -53 -19 -70 -4 -16 -13 -50 -20 -75 -22 -85 -28
-105 -38 -145 -5 -22 -17 -62 -26 -90 -25 -75 -46 -146 -55 -185 -5 -19 -14
-53 -20 -75 -6 -22 -15 -56 -20 -75 -5 -19 -14 -53 -20 -75 -6 -22 -15 -56
-20 -75 -11 -47 -38 -156 -51 -205 -32 -122 -67 -253 -80 -300 -9 -30 -53
-208 -69 -275 -5 -19 -18 -71 -30 -115 -12 -44 -29 -111 -39 -150 -17 -64 -19
-68 -29 -45 -10 25 -39 150 -62 265 -6 33 -20 96 -30 140 -10 44 -24 105 -30
135 -7 30 -20 91 -30 135 -11 44 -24 105 -30 135 -7 30 -21 93 -32 140 -10 47
-23 103 -28 125 -22 103 -52 243 -60 275 -5 19 -18 80 -30 135 -12 55 -26 114
-31 131 -5 17 -9 38 -9 46 0 9 -6 29 -14 45 -8 15 -20 55 -26 88 -7 33 -16 70
-21 83 -5 13 -9 33 -9 44 0 12 -4 35 -9 52 -5 17 -19 76 -31 131 -12 55 -26
116 -30 135 -5 19 -14 60 -20 90 -7 30 -16 71 -20 90 -5 19 -12 51 -15 70 -4
19 -11 53 -17 75 -5 22 -13 59 -19 83 -5 23 -13 62 -19 87 -5 25 -14 65 -20
90 -5 25 -14 65 -20 90 -5 25 -14 64 -19 88 -28 137 -34 151 -75 194 -68 73
-226 113 -357 93z m54 -1607 c4 -21 11 -58 17 -83 5 -25 14 -65 20 -90 5 -25
13 -63 18 -85 14 -57 33 -143 42 -190 9 -48 29 -135 42 -190 5 -22 12 -52 15
-67 l5 -28 -206 0 -206 0 9 23 c8 22 17 51 41 137 6 25 18 56 24 70 7 14 23
63 36 110 12 47 31 114 41 150 10 36 30 110 44 165 15 55 29 103 32 107 10 18
21 6 26 -29z"/>
</g>
</svg>
